<?xml version="1.0" encoding="UTF-8" standalone="no"?>
<!-- Created with Inkscape (http://www.inkscape.org/) -->

<svg
   xmlns:dc="http://purl.org/dc/elements/1.1/"
   xmlns:cc="http://creativecommons.org/ns#"
   xmlns:rdf="http://www.w3.org/1999/02/22-rdf-syntax-ns#"
   xmlns:svg="http://www.w3.org/2000/svg"
   xmlns="http://www.w3.org/2000/svg"
   xmlns:xlink="http://www.w3.org/1999/xlink"
   xmlns:sodipodi="http://sodipodi.sourceforge.net/DTD/sodipodi-0.dtd"
   xmlns:inkscape="http://www.inkscape.org/namespaces/inkscape"
   height="48"
   id="svg12733"
   inkscape:version="0.91 r13725"
   sodipodi:docname="speakerMute.svg"
   sodipodi:version="0.32"
   width="48"
   version="1.1"
   inkscape:export-filename="E:\SoftProjector\softprojector\icons\speakerMute.png"
   inkscape:export-xdpi="90"
   inkscape:export-ydpi="90">
  <metadata
     id="metadata3">
    <rdf:RDF>
      <cc:Work
         rdf:about="">
        <dc:title></dc:title>
        <dc:description />
        <dc:subject>
          <rdf:Bag>
            <rdf:li>unsorted</rdf:li>
          </rdf:Bag>
        </dc:subject>
        <dc:publisher>
          <cc:Agent
             rdf:about="http://www.openclipart.org/">
            <dc:title>Open Clip Art Library</dc:title>
          </cc:Agent>
        </dc:publisher>
        <dc:creator>
          <cc:Agent>
            <dc:title>florian</dc:title>
          </cc:Agent>
        </dc:creator>
        <dc:rights>
          <cc:Agent>
            <dc:title>florian</dc:title>
          </cc:Agent>
        </dc:rights>
        <dc:date>27.05.06</dc:date>
        <dc:format>image/svg+xml</dc:format>
        <dc:type
           rdf:resource="http://purl.org/dc/dcmitype/StillImage" />
        <cc:license
           rdf:resource="http://web.resource.org/cc/PublicDomain" />
        <dc:language>en</dc:language>
      </cc:Work>
      <cc:License
         rdf:about="http://web.resource.org/cc/PublicDomain">
        <cc:permits
           rdf:resource="http://web.resource.org/cc/Reproduction" />
        <cc:permits
           rdf:resource="http://web.resource.org/cc/Distribution" />
        <cc:permits
           rdf:resource="http://web.resource.org/cc/DerivativeWorks" />
      </cc:License>
    </rdf:RDF>
  </metadata>
  <defs
     id="defs12735">
    <linearGradient
       inkscape:collect="always"
       id="linearGradient4261">
      <stop
         style="stop-color:#616787;stop-opacity:1"
         offset="0"
         id="stop4263" />
      <stop
         style="stop-color:#fbfbfb;stop-opacity:1"
         offset="1"
         id="stop4265" />
    </linearGradient>
    <linearGradient
       id="linearGradient3141">
      <stop
         stop-color="#004191"
         id="stop4238"
         offset="0" />
      <stop
         stop-color="#000000"
         stop-opacity="0"
         id="stop4240"
         offset="1" />
    </linearGradient>
    <linearGradient
       xlink:href="#linearGradient2162"
       id="linearGradient2168"
       x1="nan"
       y1="inf"
       x2="nan"
       y2="-inf"
       gradientTransform="matrix(1.0394615,0,0,0.96203659,-73.731902,966.75278)"
       gradientUnits="userSpaceOnUse" />
    <linearGradient
       xlink:href="#linearGradient3141"
       id="linearGradient3147"
       x1="0.422802"
       y1="-inf"
       x2="0.447611"
       y2="inf" />
    <linearGradient
       xlink:href="#linearGradient3155"
       id="linearGradient3161"
       x1="0"
       y1="inf"
       x2="1"
       y2="inf" />
    <linearGradient
       id="linearGradient2162">
      <stop
         offset="0"
         id="stop2164"
         stop-color="#000000" />
      <stop
         offset="1"
         id="stop2166"
         stop-opacity="0"
         stop-color="#000000" />
    </linearGradient>
    <linearGradient
       xlink:href="#linearGradient2162"
       id="linearGradient3219"
       gradientUnits="userSpaceOnUse"
       x1="97.438423"
       y1="263.73013"
       x2="119.52634"
       y2="236.03023" />
    <linearGradient
       id="linearGradient4242">
      <stop
         offset="0"
         id="stop3143"
         stop-color="#004191"
         style="stop-color:#008f73;stop-opacity:1" />
      <stop
         offset="1"
         id="stop3145"
         stop-opacity="0"
         stop-color="#000000"
         style="stop-opacity:1;stop-color:#00286b" />
    </linearGradient>
    <linearGradient
       xlink:href="#linearGradient3141"
       id="linearGradient3217"
       gradientUnits="userSpaceOnUse"
       x1="103.84256"
       y1="234.63956"
       x2="104.90319"
       y2="279.28525" />
    <linearGradient
       id="linearGradient3155">
      <stop
         offset="0"
         id="stop3157"
         stop-color="#ffffff" />
      <stop
         offset="1"
         id="stop3159"
         stop-opacity="0"
         stop-color="#ffffff" />
    </linearGradient>
    <linearGradient
       xlink:href="#linearGradient3155"
       id="linearGradient3221"
       gradientUnits="userSpaceOnUse"
       x1="85.767342"
       y1="250.93361"
       x2="128.51839"
       y2="250.93361" />
    <linearGradient
       inkscape:collect="always"
       xlink:href="#linearGradient4242"
       id="linearGradient4234"
       x1="-48.023827"
       y1="1034.0461"
       x2="28.291519"
       y2="1030.9241"
       gradientUnits="userSpaceOnUse"
       gradientTransform="matrix(0.28729586,0,0,0.28058211,37.3726,738.90339)" />
    <linearGradient
       inkscape:collect="always"
       xlink:href="#linearGradient4261"
       id="linearGradient4267"
       x1="12.123658"
       y1="1029.0018"
       x2="22.279302"
       y2="1029.1707"
       gradientUnits="userSpaceOnUse" />
    <filter
       inkscape:collect="always"
       style="color-interpolation-filters:sRGB"
       id="filter4290"
       x="-0.096"
       width="1.192"
       y="-0.096"
       height="1.192">
      <feGaussianBlur
         inkscape:collect="always"
         stdDeviation="2.2705581"
         id="feGaussianBlur4292" />
    </filter>
    <filter
       inkscape:collect="always"
       style="color-interpolation-filters:sRGB"
       id="filter4322"
       x="-0.024"
       width="1.048"
       y="-0.024"
       height="1.048">
      <feGaussianBlur
         inkscape:collect="always"
         stdDeviation="0.56763952"
         id="feGaussianBlur4324" />
    </filter>
  </defs>
  <sodipodi:namedview
     bordercolor="#666666"
     borderopacity="1.0"
     id="base"
     inkscape:current-layer="g4256"
     inkscape:cx="13.175753"
     inkscape:cy="20.148088"
     inkscape:document-units="px"
     inkscape:pageopacity="0.0"
     inkscape:pageshadow="2"
     inkscape:window-height="1028"
     inkscape:window-width="1920"
     inkscape:window-x="-8"
     inkscape:window-y="-8"
     inkscape:zoom="12.565877"
     pagecolor="#ffffff"
     showgrid="false"
     inkscape:window-maximized="1"
     units="px" />
  <g
     id="layer1"
     inkscape:groupmode="layer"
     inkscape:label="Ebene 1"
     transform="translate(0,-1004.3622)">
    <g
       id="g4250" />
    <g
       id="g4256"
       transform="translate(-0.06191087,-0.67599481)">
      <rect
         style="opacity:1;fill:#001f5d;fill-opacity:1;stroke:#000000;stroke-width:1.03694546;stroke-linecap:square;stroke-linejoin:round;stroke-miterlimit:4;stroke-dasharray:none;stroke-dashoffset:0;stroke-opacity:1"
         id="rect4247"
         width="6.3677917"
         height="12.951612"
         x="2.5839825"
         y="1022.6949"
         ry="0" />
      <path
         style="color:#000000;display:inline;overflow:visible;visibility:visible;fill:url(#linearGradient4267);fill-opacity:1;fill-rule:nonzero;stroke:#000000;stroke-width:1;stroke-linecap:butt;stroke-linejoin:round;stroke-miterlimit:4;stroke-dasharray:none;stroke-dashoffset:0;stroke-opacity:1;marker:none;marker-start:none;marker-mid:none;marker-end:none"
         d="m 19.305516,1008.0394 -9.4683844,13.3889 -1.6026881,0 0,15.42 1.6026881,0 9.5326454,13.4537 2.409525,0 0,-42.2626 -2.473786,0 z"
         id="rect9933"
         inkscape:connector-curvature="0" />
      <path
         d="m 35.898843,1007.8948 c 5.080935,5.6908 8.159469,13.1303 8.159469,21.2678 -2e-6,8.0194 -2.989725,15.3609 -7.939264,21.0188 m -8.166017,-38.6917 c 4.811234,4.4296 7.815942,10.7107 7.815942,17.673 0,6.9878 -3.026741,13.2894 -7.86883,17.7218 m -2.974996,-26.3569 c 1.617848,2.4998 2.554467,5.4612 2.554467,8.6351 -3e-6,3.2044 -0.954689,6.1923 -2.601249,8.707"
         id="path10976"
         sodipodi:nodetypes="csccsccsc"
         style="color:#000000;display:inline;overflow:visible;visibility:visible;fill:none;fill-opacity:1;fill-rule:nonzero;stroke:url(#linearGradient4234);stroke-width:4;stroke-linecap:round;stroke-linejoin:round;stroke-miterlimit:4;stroke-dasharray:none;stroke-dashoffset:0;stroke-opacity:1;marker:none;marker-start:none;marker-mid:none;marker-end:none"
         inkscape:connector-curvature="0" />
      <g
         id="g4221"
         transform="matrix(0.50750859,0,0,0.50750859,108.81823,835.02172)">
        <path
           style="opacity:1;fill:#000000;fill-opacity:1;stroke:#000000;stroke-width:3.94081998;stroke-miterlimit:4;stroke-dasharray:none;stroke-dashoffset:0;stroke-opacity:1;filter:url(#filter4290)"
           d="m -178.16292,366.65151 a 28.381955,28.381955 0 0 0 0.8226,40.12972 28.381955,28.381955 0 0 0 40.13278,-0.82575 28.381955,28.381955 0 0 0 -0.82881,-40.12962 28.381955,28.381955 0 0 0 -40.12657,0.82565 z m 5.92346,5.68462 a 20.170825,20.170825 0 0 1 24.30611,-3.67604 l -26.9701,28.10328 a 20.170825,20.170825 0 0 1 2.66399,-24.42724 z m 4.79919,31.60773 26.96707,-28.10013 a 20.170825,20.170825 0 0 1 -2.65782,24.42713 20.170825,20.170825 0 0 1 -24.30925,3.673 z"
           id="path4181-9-5"
           inkscape:connector-curvature="0" />
        <path
           style="opacity:1;fill:#ff2a2a;fill-opacity:1;stroke:#ffffff;stroke-width:3.94081998;stroke-miterlimit:4;stroke-dasharray:none;stroke-dashoffset:0;stroke-opacity:1;filter:url(#filter4322)"
           d="m -178.16292,366.65151 a 28.381955,28.381955 0 0 0 0.8226,40.12972 28.381955,28.381955 0 0 0 40.13278,-0.82575 28.381955,28.381955 0 0 0 -0.82881,-40.12962 28.381955,28.381955 0 0 0 -40.12657,0.82565 z m 5.92346,5.68462 a 20.170825,20.170825 0 0 1 24.30611,-3.67604 l -26.9701,28.10328 a 20.170825,20.170825 0 0 1 2.66399,-24.42724 z m 4.79919,31.60773 26.96707,-28.10013 a 20.170825,20.170825 0 0 1 -2.65782,24.42713 20.170825,20.170825 0 0 1 -24.30925,3.673 z"
           id="path4181-9"
           inkscape:connector-curvature="0" />
        <path
           style="opacity:1;fill:#ff2a2a;fill-opacity:1;stroke:none;stroke-width:3.94081998;stroke-miterlimit:4;stroke-dasharray:none;stroke-dashoffset:0;stroke-opacity:1"
           d="m -178.16292,366.65151 a 28.381956,28.381956 0 0 0 0.8226,40.12973 28.381956,28.381956 0 0 0 40.13278,-0.82576 28.381956,28.381956 0 0 0 -0.82881,-40.12962 28.381956,28.381956 0 0 0 -40.12657,0.82565 z m 5.92346,5.68462 a 20.170825,20.170825 0 0 1 24.30611,-3.67604 l -26.9701,28.10328 a 20.170825,20.170825 0 0 1 2.66399,-24.42724 z m 4.79919,31.60773 26.96707,-28.10013 a 20.170825,20.170825 0 0 1 -2.65782,24.42713 20.170825,20.170825 0 0 1 -24.30925,3.673 z"
           id="path4181"
           inkscape:connector-curvature="0" />
      </g>
    </g>
  </g>
</svg>
